<svg xmlns="http://www.w3.org/2000/svg" xmlns:xlink="http://www.w3.org/1999/xlink" version="1.1" width="1000" height="1000" viewBox="0 0 1000 1000" xml:space="preserve">
<desc>Created with Fabric.js 3.5.0</desc>
<defs>
</defs>
<rect x="0" y="0" width="100%" height="100%" fill="rgba(255,255,255,0)"/>
<g transform="matrix(0.6018 0 0 0.6155 500.0129 510.2126)" id="277634">
<g style="" vector-effect="non-scaling-stroke">
		<g transform="matrix(1 0 0 1 0.27 50.29)" id="Layer_1">
<linearGradient id="SVGID_5" gradientUnits="userSpaceOnUse" gradientTransform="matrix(1 0 0 1 -960.27 -590.29)" x1="483.89" y1="590.29" x2="1436.66" y2="590.29">
<stop offset="0%" style="stop-color:rgb(0,181,195);stop-opacity: 1"/>
<stop offset="14.000000000000002%" style="stop-color:rgb(0,175,195);stop-opacity: 1"/>
<stop offset="31%" style="stop-color:rgb(0,160,197);stop-opacity: 1"/>
<stop offset="49%" style="stop-color:rgb(0,135,200);stop-opacity: 1"/>
<stop offset="69%" style="stop-color:rgb(0,100,204);stop-opacity: 1"/>
<stop offset="90%" style="stop-color:rgb(0,55,209);stop-opacity: 1"/>
<stop offset="100%" style="stop-color:rgb(0,31,212);stop-opacity: 1"/>
</linearGradient>
<circle style="stroke: none; stroke-width: 1; stroke-dasharray: none; stroke-linecap: butt; stroke-dashoffset: 0; stroke-linejoin: miter; stroke-miterlimit: 4; is-custom-font: none; font-file-url: none; fill: url(#SVGID_5); fill-rule: nonzero; opacity: 1;" cx="0" cy="0" r="476.39"/>
</g>
		<g transform="matrix(1 0 0 1 -71.5141 -19.886)" id="Layer_1">
<path style="stroke: none; stroke-width: 1; stroke-dasharray: none; stroke-linecap: butt; stroke-dashoffset: 0; stroke-linejoin: miter; stroke-miterlimit: 4; is-custom-font: none; font-file-url: none; fill: rgb(0,0,0); fill-rule: nonzero; opacity: 1;" transform=" translate(-888.4859, -520.114)" d="M 981.66 857.26 c -23.76 1.68 -46.84 3.31 -69.14 4.89 c 22.69 25.46 23.77 28.69 7.15 61.38 c -14.14 27.81 -32.65 52.81 -55.32 74.48 c -10.95 10.47 -24.46 12.1 -38.43 9.75 c -23.14 -3.9 -42.65 -15.09 -58.78 -32.02 c -13.25 -13.9 -14.29 -27.29 0.14 -39.26 c 19.05 -15.8 40.07 -29.24 60.37 -43.51 c 7.08 -4.97 14.78 -9.07 21.78 -14.15 c 7.14 -5.18 9.82 -12.08 6.31 -20.91 c -4.2 -10.56 -8.88 -20.4 -19.89 -25.86 c -27.44 -13.61 -48.08 -34.22 -61.26 -61.91 c -3.85 -8.09 -8.93 -13.86 -18.04 -15.21 c -6.6 -0.98 -9.93 -4.72 -8.27 -11.2 c 3.01 -11.81 -2.63 -20.63 -8.51 -29.93 c -46.98 -74.29 -88.29 -151.54 -120.23 -233.58 c -19.01 -48.84 -34.39 -98.79 -41.31 -150.88 c -5.72 -43.04 -7.63 -86.5 5.1 -128.52 c 20.28 -66.96 67.24 -109.65 130.43 -135.9 c 53.11 -22.07 109.31 -29.01 166.09 -32.09 c 64.13 -3.48 128.03 -0.37 190.71 13.98 c 26.15 5.99 52.35 14.58 76.39 26.35 c 51.48 25.2 48.32 71.25 24.4 107.37 c -13.42 20.26 -34.45 31.2 -57.23 36.41 c -19.15 4.39 -35.93 9.66 -45.88 28.33 c -2.76 5.18 -8.39 8.82 -12.24 12.7 c 4.19 11.76 6.89 23.99 12.72 34.49 c 7.42 13.36 16.19 26.4 26.51 37.63 c 17.19 18.7 33.4 37.74 34.51 64.3 c 0.51 12.29 -0.8 25.55 -5.04 36.98 c -10.76 29.08 -28.92 52.97 -56.42 69.45 c 1.63 -0.47 3.29 -0.85 4.87 -1.44 c 1.66 -0.62 3.25 -1.45 5.72 -2.58 c 9.3 24.47 31.34 34.46 51.64 46.55 c 5.54 3.3 10.74 7.31 15.6 11.56 c 6.69 5.86 10.2 12.25 1.18 19.51 c -1.62 1.31 -3.14 4.73 -2.57 6.48 c 6.46 19.87 -3.68 35.65 -11.81 52.18 c -2.28 4.63 -3.42 10.78 -2.58 15.83 c 4.82 29.16 10.35 58.2 15.74 87.27 c 1.2 6.46 -0.25 11.88 -6.56 14.35 c -26.09 10.2 -43.39 30.23 -60.85 51.03 c -10.75 12.81 -25.11 22.79 -38.65 32.96 c -5.72 4.29 -9.86 8.61 -6.03 14.65 c 2.22 3.5 8.57 6.38 12.9 6.18 c 20.91 -0.95 41.74 -3.72 62.65 -4.51 c 17.59 -0.66 35.55 -1.38 52.81 1.33 c 25.02 3.92 43.96 31.44 40.39 54.76 c -1.95 12.77 -9.39 21.11 -22.09 20.71 c -16.84 -0.53 -33.78 -2.34 -50.36 -5.37 c -35.77 -6.55 -70.89 -17.15 -107.76 -16.47 c -3.98 0.07 -7.95 0.16 -11.92 0.38 c -13.67 0.77 -21.37 -3.99 -24.5 -17.43 c -2.51 -10.79 -3.16 -22.02 -4.42 -31.45 Z m 192.38 15.05 c 0.23 -0.68 0.47 -1.37 0.7 -2.05 c -7.96 -2.57 -15.85 -7.07 -23.89 -7.34 c -20.13 -0.69 -40.33 0.51 -60.5 1 c -19.12 0.47 -38.24 1.3 -57.36 1.38 c -9.72 0.04 -10.56 -8.32 -12.19 -15.33 c -1.42 -6.1 -2.38 -11.28 5.3 -15.32 c 9.18 -4.83 17.93 -11.09 25.56 -18.14 c 13.13 -12.14 25.24 -25.39 39.64 -40.06 c -103.53 21.65 -202.12 9.18 -300.89 -8.91 c 13.57 23.31 30.14 44.41 53.68 56.96 c 17.68 9.43 23.03 22.37 23.83 40.34 c 0.42 9.35 -0.66 17.31 -8.86 22.85 c -15.83 10.69 -31.67 21.36 -47.6 31.9 c -12.03 7.96 -24.69 15.06 -36.16 23.75 c -9.3 7.03 -9.23 14.29 -2.18 22.59 c 25.52 -16.52 51.03 -33.04 76.54 -49.57 c 0.74 1.05 1.49 2.09 2.23 3.14 c -4.01 3.36 -7.75 7.11 -12.07 10.01 c -17.69 11.87 -35.72 23.25 -53.21 35.4 c -3.32 2.3 -7.52 9.55 -6.61 10.66 c 4.31 5.26 9.85 9.95 15.84 13.15 c 1.95 1.04 7.75 -2.17 9.88 -4.92 c 18.23 -23.55 43.29 -38.33 68.22 -53.39 c -7.52 8.04 -16.11 14.83 -24.35 22.02 c -11.41 9.95 -22.92 19.85 -33.61 30.56 c -3.13 3.13 -6.26 11.03 -4.68 13.06 c 3 3.84 9.26 6.49 14.43 7.02 c 17.27 1.76 32.05 -4.9 43.94 -17.06 c 21.22 -21.71 37.49 -46.73 47.57 -75.51 c 5.24 -14.98 3.13 -22.44 -9.41 -32.11 c -9.62 -7.42 -11.97 -17.02 -11.23 -29.42 c 30.51 5.74 59.86 5.45 89.18 -0.77 c 1.59 -0.34 5.83 4.36 6.21 7.08 c 1.31 9.28 1.42 18.73 2.02 28.11 c 0.91 14.05 3 16.17 16.97 15.95 c 13.7 -0.21 27.69 -2.84 41.02 -0.83 c 28.14 4.25 55.9 10.98 83.87 16.39 c 15.22 2.94 30.51 5.55 45.86 7.71 c 7.46 1.05 12.28 -2.9 14.05 -10.45 c 1.75 -7.46 -1.64 -11.96 -8.3 -14.13 c -8.21 -2.67 -16.49 -5.23 -24.91 -7.06 c -8.56 -1.86 -17.32 -2.78 -25.99 -4.12 c 0.16 -0.95 0.33 -1.9 0.49 -2.85 c 19.94 -0.87 39.08 3.22 57.89 10.54 c -13.41 -23.21 -39.04 -16.25 -59.07 -22.98 l 0.53 -3.13 c 12.55 1.29 25.09 2.59 37.64 3.88 Z m -81.29 -408.95 c 35.08 -43 32.75 -78 4.39 -112.77 c -3.2 -3.92 -6.13 -8.2 -9.9 -11.47 c -16.05 -13.92 -26.06 -31.32 -32.45 -51.47 c -4.71 -14.86 -13.48 -28.09 -28.37 -33.99 c -53.76 -21.3 -107.62 -22.92 -160.64 2.8 c -13.97 6.77 -24.81 17.98 -26.72 33.53 c -3.84 31.29 -14.82 59.37 -32.51 85.13 c -0.26 0.38 0.16 1.25 -0.02 0.15 c 14.92 -2.81 29.87 -5.62 46.14 -8.69 c -0.68 1.03 -0.09 0.5 0.04 -0.13 c 0.91 -4.24 1.56 -8.54 2.59 -12.74 c 6 -24.4 16.41 -44.76 44.04 -50.61 c 31.58 -6.68 63.09 -7.12 94.62 -0.27 c 16.1 3.5 29.88 10.83 38.26 25.82 c 5.77 10.32 11.22 20.82 17.28 32.11 c 20.56 -1.11 41.7 -0.56 56.87 17.9 c -16.69 -12.18 -35.54 -13.9 -56.09 -11.96 c 0.37 4.6 1.26 8.52 0.89 12.32 c -0.84 8.48 2.55 11.22 10.98 13.18 c 11.71 2.72 23.06 7.85 33.82 13.39 c 5.05 2.6 8.37 8.54 12.48 12.97 c -0.74 0.81 -1.47 1.61 -2.21 2.42 c -14.01 -17.56 -33.04 -23.25 -54.18 -24.74 c -2.34 9.34 -4.5 17.97 -6.78 27.06 c 19.07 9.85 37.24 20.27 47.46 40.05 Z m -50.17 -69.63 h -28 c 0.03 -1.13 0.06 -2.26 0.09 -3.39 c 8.98 -0.52 17.96 -1.04 27.64 -1.6 c -0.86 -7.74 -1.59 -14.31 -2.44 -21.95 c -17.02 4.81 -32.25 9.11 -47.48 13.41 c -0.45 -1.79 -0.91 -3.58 -1.36 -5.37 c 15.55 -4.38 31.1 -8.76 49.11 -13.84 c -6.52 -13.24 -12.97 -26.34 -20.25 -41.12 c -19.8 24.12 -40.06 42.09 -66.49 50.86 c 0 25.96 -0.23 51.23 0.1 76.49 c 0.15 11.63 30.46 33 42.05 30.17 c 1.01 -0.25 2.01 -0.86 2.82 -1.54 c 16.21 -13.58 29.37 -29.35 36.88 -50.75 c -13.37 -3.79 -25.82 -7.32 -38.26 -10.85 c 0.31 -1.44 0.62 -2.89 0.92 -4.33 c 6.08 1.12 12.26 1.86 18.21 3.44 c 6.84 1.82 13.47 4.37 21.31 6.98 c 1.7 -8.77 3.17 -16.39 5.15 -26.64 Z m -171.92 34.36 c 9.49 12.39 16.41 24.47 26.16 33.53 c 20.82 19.35 19.91 17.64 40.91 0.8 c 4.17 -3.34 8.2 -9.74 8.28 -14.8 c 0.39 -23.45 -0.49 -46.93 -1.36 -70.38 c -0.11 -2.85 -2.31 -7.38 -4.55 -8.14 c -26.5 -8.92 -47.25 -25 -62.43 -48.97 c -9.73 12.55 -12.81 26.78 -14.48 41.69 c -0.71 6.31 0.6 8.95 7.26 10.15 c 10.26 1.84 20.32 4.88 30.35 7.83 c 2.73 0.8 5.02 3.08 7.52 4.68 l -1.29 2.6 c -14.42 -3.97 -28.83 -7.95 -44.83 -12.36 c 0.93 8.72 1.55 14.59 2.15 20.24 c 8.27 0.66 15.25 1.21 22.24 1.77 c -0.03 1.22 -0.05 2.44 -0.08 3.66 h -21.71 c 2.37 8.38 4.25 15.03 6.08 21.51 c 11.37 -2.86 21.26 -5.34 31.14 -7.82 c 0.42 1.56 0.85 3.12 1.27 4.68 c -9.88 2.82 -19.75 5.64 -32.62 9.31 Z m 180.55 78.2 c -19.96 2.53 -39.92 4.92 -59.8 7.82 c -2.11 0.31 -4.73 3.4 -5.47 5.73 c -3.67 11.59 -11.97 14.82 -22.78 12.82 c -9.69 -1.79 -20.57 -2.44 -28.33 -7.55 c -5.22 -3.44 -9.22 -5.35 -14.98 -5.1 c -18.62 0.8 -37.24 1.68 -55.86 2.17 c -5.49 0.15 -11 -0.9 -17.63 -1.49 c 1.23 2.18 1.49 3.43 2.2 3.8 c 37.88 19.26 76.71 35.63 120.32 34.67 c 34.24 -0.76 63.67 -13.23 87.76 -37.71 c -1.83 -5.1 -3.39 -9.44 -5.44 -15.14 Z m -126.8 3.11 c -5.91 -14.24 -11.98 -25.93 -23.94 -35.78 c -14.09 -11.6 -24.62 -27.55 -37.19 -42.2 c -22.98 9.35 -44.88 21.71 -50.53 51.6 c 31.02 30.7 69.84 31.77 111.65 26.37 Z m -72.51 -134.33 c -43.44 -3.82 -61.86 12.88 -60.75 54.58 c 0.47 17.55 3.97 34.43 18.24 48.4 c 6.9 -29.28 29.92 -41.58 53.79 -53.17 c -3.22 -8.03 -6.12 -15.25 -8.99 -22.4 c -20.88 0.02 -38.46 6.38 -53.09 20.63 c 11.01 -20.76 31.99 -22.96 51.75 -27.5 c -0.33 -7.12 -0.62 -13.53 -0.94 -20.54 Z m 141.73 127.85 c 18.17 -3.16 34.81 -6.05 51.45 -8.95 c 15.21 -2.65 29.11 -7.54 39.69 -19.87 c 3.94 -4.59 5.03 -7.89 1.5 -13.06 c -10.76 -15.76 -26.08 -24.88 -43.59 -32.07 c -1.99 4.08 -3.09 7.65 -5.21 10.43 c -10.16 13.34 -19.4 27.73 -31.4 39.21 c -7.14 6.83 -11.16 13.25 -12.44 24.31 Z m 70.58 190.43 c -14.04 -20.96 -27.58 -41.4 -41.44 -61.62 c -1.75 -2.54 -5.89 -5.96 -7.72 -5.35 c -2.92 0.97 -5.93 4.61 -6.98 7.77 c -6.16 18.49 -11.7 37.19 -17.6 55.77 c -1.57 4.96 -3.66 9.76 -5.51 14.63 l 3 3 c 4.08 -2.79 10.96 -4.97 11.74 -8.5 c 2.47 -11.19 8.16 -15.83 19.32 -15.26 c 3.89 0.2 8.07 -0.5 11.73 -1.86 c 7.52 -2.78 12.42 -0.46 15.72 6.45 c 3.9 8.16 9.76 9.69 17.74 4.97 Z m -182.68 -67.93 c -0.62 -1.07 -1.25 -2.13 -1.87 -3.2 c -2.94 1.35 -8.05 2.21 -8.49 4.14 c -5.33 23.05 -9.96 46.27 -14.99 70.46 c 4.76 0.66 8.06 1.12 11.78 1.64 c 2.44 -11.95 4.68 -22.89 6.92 -33.82 c 16.3 13.36 18.94 40.39 47.83 41.58 c -12.7 -16.16 -23.91 -30.42 -35.06 -44.62 c 13.09 -10.53 24.98 -20.1 36.87 -29.67 c -22.18 -5.8 -29.65 17.75 -47.64 21.27 c 1.59 -9.49 3.12 -18.63 4.65 -27.77 Z m 43.73 71.89 c 9.94 11.48 27.7 15.12 40.37 8.3 c 8.21 -4.41 13.2 -11.2 12.91 -20.89 c -0.3 -9.92 -6.15 -15.8 -14.98 -19.11 c -5.05 -1.9 -10.91 -2.57 -15.07 -5.61 c -3.41 -2.49 -7.57 -8.69 -6.54 -11.4 c 1.51 -3.98 6.99 -7.68 11.47 -8.88 c 3.38 -0.91 7.86 2.29 11.86 3.64 c 0.97 0.33 1.97 0.56 3.53 0.99 c 1.94 -2.35 3.89 -4.72 5.79 -7.02 c -8.71 -8.9 -20.06 -11.3 -30.93 -6.77 c -9.82 4.09 -14.52 12.02 -14.13 22.21 c 0.45 11.79 8.72 17.47 18.98 20.9 c 3.41 1.14 7.34 1.71 10.02 3.82 c 3.03 2.39 7.22 6.6 6.76 9.33 c -0.62 3.75 -4.64 8.88 -8.11 9.74 c -5.12 1.27 -12.13 1 -16.36 -1.7 c -6.52 -4.17 -10.77 -4.37 -15.6 2.45 Z m 34.48 -169.63 c 6.6 -2.04 15.32 -2.1 17.67 -6 c 5.64 -9.36 8.58 -20.44 11.92 -31.04 c 0.71 -2.25 -0.64 -6.79 -2.49 -7.95 c -10.83 -6.79 -22.09 -12.9 -32.24 -18.68 c 1.57 19.44 3.24 40.13 5.15 63.68 Z m -11.88 -64.71 c -9.22 7.35 -22.12 12.6 -23.98 20.46 c -2.07 8.74 5.94 19.86 9.56 29.95 c 0.12 0.34 0.28 0.66 0.42 0.99 c 3.91 9.05 10.46 11.86 19.88 8.87 c -1.95 -20.03 -3.85 -39.52 -5.87 -60.28 Z m 96.11 -232.56 c -26.06 -1.48 -51.43 -2.92 -76.8 -4.37 l 0.1 1.44 c 25.5 6.7 50.99 13.41 76.7 20.16 v -17.24 Z m 6.67 19.69 c 0.92 0.5 1.83 1 2.75 1.5 c 6.41 -6.89 13.3 -13.42 18.95 -20.88 c 1.7 -2.24 1.33 -8.33 -0.56 -10.45 c -2.76 -3.1 -7.69 -5.43 -11.81 -5.65 c -2 -0.1 -5.59 5.11 -6.2 8.34 c -1.68 8.93 -2.17 18.08 -3.13 27.14 Z m -285.31 362.51 c -6.41 11.42 -3.56 21.68 10.49 36.41 c 4 -7.23 7.92 -14.33 11.66 -21.09 c -7.65 -5.29 -14.91 -10.31 -22.15 -15.32 Z m 82.03 -364.43 c 0.97 -0.49 1.94 -0.98 2.92 -1.47 c -0.63 -6.7 -0.52 -13.59 -2.2 -20.01 c -0.93 -3.55 -4.32 -7.45 -7.63 -8.98 c -1.8 -0.83 -7.36 2.32 -8.32 4.8 c -1.34 3.46 -1.46 9.07 0.55 11.8 c 3.92 5.34 9.68 9.32 14.68 13.86 Z m 116.2 65.6 c 13.48 11.08 32.66 12.44 41.47 3.81 c -12.99 -6.35 -25.71 -7.85 -41.47 -3.81 Z m 163.46 312.3 c 2.53 -11.08 5.07 -22.16 8.19 -35.78 c -23.06 17.24 -19.72 11.02 -8.19 35.78 Z" stroke-linecap="round"/>
</g>
		<g transform="matrix(1 0 0 1 22.1269 345.4348)" id="Layer_1">
<path style="stroke: none; stroke-width: 1; stroke-dasharray: none; stroke-linecap: butt; stroke-dashoffset: 0; stroke-linejoin: miter; stroke-miterlimit: 4; is-custom-font: none; font-file-url: none; fill: rgb(209,145,94); fill-rule: nonzero; opacity: 1;" transform=" translate(-982.127, -885.4348)" d="M 1174.04 872.3 c -12.55 -1.29 -25.09 -2.59 -37.64 -3.88 l -0.53 3.13 c 20.02 6.73 45.66 -0.23 59.07 22.98 c -18.81 -7.32 -37.95 -11.41 -57.89 -10.54 c -0.16 0.95 -0.33 1.9 -0.49 2.85 c 8.67 1.33 17.44 2.25 25.99 4.12 c 8.42 1.83 16.71 4.39 24.91 7.06 c 6.67 2.17 10.05 6.67 8.3 14.13 c -1.77 7.54 -6.59 11.5 -14.05 10.45 c -15.34 -2.16 -30.64 -4.77 -45.86 -7.71 c -27.97 -5.41 -55.73 -12.15 -83.87 -16.39 c -13.32 -2.01 -27.32 0.62 -41.02 0.83 c -13.97 0.22 -16.06 -1.91 -16.97 -15.95 c -0.61 -9.38 -0.72 -18.83 -2.02 -28.11 c -0.38 -2.72 -4.62 -7.42 -6.21 -7.08 c -29.32 6.22 -58.67 6.51 -89.18 0.77 c -0.74 12.4 1.62 22.01 11.23 29.42 c 12.54 9.67 14.65 17.12 9.41 32.11 c -10.07 28.78 -26.35 53.81 -47.57 75.51 c -11.89 12.17 -26.67 18.82 -43.94 17.06 c -5.17 -0.53 -11.44 -3.18 -14.43 -7.02 c -1.58 -2.03 1.55 -9.93 4.68 -13.06 c 10.68 -10.71 22.19 -20.6 33.61 -30.56 c 8.24 -7.19 16.83 -13.97 24.35 -22.02 c -24.93 15.06 -49.98 29.84 -68.22 53.39 c -2.13 2.75 -7.94 5.96 -9.88 4.92 c -6 -3.2 -11.53 -7.89 -15.84 -13.15 c -0.91 -1.11 3.29 -8.36 6.61 -10.66 c 17.49 -12.15 35.52 -23.53 53.21 -35.4 c 4.32 -2.9 8.06 -6.65 12.07 -10.01 c -0.74 -1.05 -1.49 -2.09 -2.23 -3.14 c -25.51 16.52 -51.02 33.04 -76.54 49.57 c -7.05 -8.31 -7.11 -15.56 2.18 -22.59 c 11.47 -8.68 24.13 -15.79 36.16 -23.75 c 15.93 -10.54 31.78 -21.2 47.6 -31.9 c 8.19 -5.54 9.27 -13.49 8.86 -22.85 c -0.8 -17.97 -6.15 -30.91 -23.83 -40.34 c -23.54 -12.56 -40.12 -33.66 -53.68 -56.96 c 98.77 18.09 197.36 30.56 300.89 8.91 c -14.4 14.67 -26.51 27.92 -39.64 40.06 c -7.63 7.06 -16.38 13.31 -25.56 18.14 c -7.68 4.04 -6.72 9.22 -5.3 15.32 c 1.63 7 2.47 15.37 12.19 15.33 c 19.12 -0.08 38.24 -0.91 57.36 -1.38 c 20.17 -0.49 40.37 -1.69 60.5 -1 c 8.04 0.28 15.93 4.77 23.89 7.34 c -0.23 0.68 -0.47 1.37 -0.7 2.05 Z" stroke-linecap="round"/>
</g>
		<g transform="matrix(1 0 0 1 2.6117 -189.5958)" id="Layer_1">
<path style="stroke: none; stroke-width: 1; stroke-dasharray: none; stroke-linecap: butt; stroke-dashoffset: 0; stroke-linejoin: miter; stroke-miterlimit: 4; is-custom-font: none; font-file-url: none; fill: rgb(209,144,98); fill-rule: nonzero; opacity: 1;" transform=" translate(-962.6117, -350.4043)" d="M 1092.75 463.36 c -10.21 -19.79 -28.39 -30.2 -47.46 -40.05 c 2.28 -9.09 4.44 -17.71 6.78 -27.06 c 21.15 1.49 40.17 7.18 54.18 24.74 c 0.74 -0.81 1.47 -1.61 2.21 -2.42 c -4.11 -4.43 -7.43 -10.38 -12.48 -12.97 c -10.77 -5.54 -22.11 -10.67 -33.82 -13.39 c -8.43 -1.96 -11.82 -4.7 -10.98 -13.18 c 0.37 -3.8 -0.51 -7.73 -0.89 -12.32 c 20.54 -1.94 39.4 -0.22 56.09 11.96 c -15.16 -18.46 -36.31 -19.01 -56.87 -17.9 c -6.06 -11.29 -11.51 -21.79 -17.28 -32.11 c -8.38 -14.99 -22.16 -22.32 -38.26 -25.82 c -31.54 -6.85 -63.04 -6.41 -94.62 0.27 c -27.63 5.85 -38.04 26.21 -44.04 50.61 c -1.03 4.21 -1.68 8.51 -2.59 12.74 c -0.13 0.63 -0.72 1.16 -0.04 0.13 c -16.27 3.06 -31.22 5.88 -46.14 8.69 c 0.18 1.09 -0.25 0.23 0.02 -0.15 c 17.69 -25.76 28.68 -53.84 32.51 -85.13 c 1.91 -15.55 12.75 -26.75 26.72 -33.53 c 53.02 -25.72 106.88 -24.09 160.64 -2.8 c 14.89 5.9 23.66 19.12 28.37 33.99 c 6.39 20.15 16.4 37.55 32.45 51.47 c 3.78 3.28 6.71 7.56 9.9 11.47 c 28.37 34.77 30.69 69.77 -4.39 112.77 Z" stroke-linecap="round"/>
</g>
		<g transform="matrix(1 0 0 1 37.951 -141.2223)" id="Layer_1">
<path style="stroke: none; stroke-width: 1; stroke-dasharray: none; stroke-linecap: butt; stroke-dashoffset: 0; stroke-linejoin: miter; stroke-miterlimit: 4; is-custom-font: none; font-file-url: none; fill: rgb(221,179,146); fill-rule: nonzero; opacity: 1;" transform=" translate(-997.951, -398.7777)" d="M 1042.58 393.72 c -1.98 10.25 -3.45 17.87 -5.15 26.64 c -7.84 -2.61 -14.47 -5.16 -21.31 -6.98 c -5.96 -1.58 -12.13 -2.33 -18.21 -3.44 c -0.31 1.44 -0.62 2.89 -0.92 4.33 c 12.45 3.53 24.89 7.06 38.26 10.85 c -7.52 21.4 -20.67 37.17 -36.88 50.75 c -0.81 0.68 -1.81 1.29 -2.82 1.54 c -11.58 2.83 -41.89 -18.54 -42.05 -30.17 c -0.33 -25.26 -0.1 -50.54 -0.1 -76.49 c 26.44 -8.78 46.69 -26.74 66.49 -50.86 c 7.28 14.78 13.73 27.88 20.25 41.12 c -18 5.07 -33.55 9.45 -49.11 13.84 c 0.45 1.79 0.91 3.58 1.36 5.37 c 15.23 -4.3 30.45 -8.6 47.48 -13.41 c 0.85 7.64 1.58 14.2 2.44 21.95 c -9.68 0.56 -18.66 1.08 -27.64 1.6 c -0.03 1.13 -0.06 2.26 -0.09 3.39 h 28 Z" stroke-linecap="round"/>
</g>
		<g transform="matrix(1 0 0 1 -55.8575 -142.1265)" id="Layer_1">
<path style="stroke: none; stroke-width: 1; stroke-dasharray: none; stroke-linecap: butt; stroke-dashoffset: 0; stroke-linejoin: miter; stroke-miterlimit: 4; is-custom-font: none; font-file-url: none; fill: rgb(221,179,146); fill-rule: nonzero; opacity: 1;" transform=" translate(-904.1425, -397.8735)" d="M 870.66 428.08 c 12.87 -3.67 22.74 -6.49 32.62 -9.31 c -0.42 -1.56 -0.85 -3.12 -1.27 -4.68 c -9.88 2.48 -19.76 4.96 -31.14 7.82 c -1.83 -6.49 -3.71 -13.14 -6.08 -21.51 h 21.71 c 0.03 -1.22 0.05 -2.44 0.08 -3.66 c -6.99 -0.56 -13.97 -1.11 -22.24 -1.77 c -0.6 -5.65 -1.22 -11.52 -2.15 -20.24 c 16 4.41 30.41 8.38 44.83 12.36 l 1.29 -2.6 c -2.49 -1.6 -4.79 -3.88 -7.52 -4.68 c -10.03 -2.94 -20.09 -5.98 -30.35 -7.83 c -6.66 -1.2 -7.96 -3.85 -7.26 -10.15 c 1.67 -14.91 4.74 -29.14 14.48 -41.69 c 15.18 23.97 35.93 40.05 62.43 48.97 c 2.24 0.75 4.44 5.28 4.55 8.14 c 0.87 23.45 1.75 46.93 1.36 70.38 c -0.08 5.06 -4.11 11.45 -8.28 14.8 c -21 16.85 -20.09 18.55 -40.91 -0.8 c -9.74 -9.06 -16.67 -21.14 -26.16 -33.53 Z" stroke-linecap="round"/>
</g>
		<g transform="matrix(1 0 0 1 -8.49 -7.2849)" id="Layer_1">
<path style="stroke: none; stroke-width: 1; stroke-dasharray: none; stroke-linecap: butt; stroke-dashoffset: 0; stroke-linejoin: miter; stroke-miterlimit: 4; is-custom-font: none; font-file-url: none; fill: rgb(209,145,94); fill-rule: nonzero; opacity: 1;" transform=" translate(-951.51, -532.7151)" d="M 1051.21 506.28 c 2.05 5.7 3.61 10.04 5.44 15.14 c -24.09 24.48 -53.52 36.96 -87.76 37.71 c -43.61 0.96 -82.43 -15.4 -120.32 -34.67 c -0.71 -0.36 -0.97 -1.62 -2.2 -3.8 c 6.62 0.6 12.14 1.64 17.63 1.49 c 18.63 -0.49 37.25 -1.38 55.86 -2.17 c 5.75 -0.25 9.76 1.67 14.98 5.1 c 7.75 5.11 18.64 5.76 28.33 7.55 c 10.81 2 19.1 -1.23 22.78 -12.82 c 0.74 -2.32 3.36 -5.42 5.47 -5.73 c 19.88 -2.91 39.85 -5.29 59.8 -7.82 Z" stroke-linecap="round"/>
</g>
		<g transform="matrix(1 0 0 1 -91.41 -68.3429)" id="Layer_1">
<path style="stroke: none; stroke-width: 1; stroke-dasharray: none; stroke-linecap: butt; stroke-dashoffset: 0; stroke-linejoin: miter; stroke-miterlimit: 4; is-custom-font: none; font-file-url: none; fill: rgb(209,145,94); fill-rule: nonzero; opacity: 1;" transform=" translate(-868.59, -471.6571)" d="M 924.41 509.39 c -41.81 5.4 -80.63 4.32 -111.65 -26.37 c 5.65 -29.9 27.55 -42.26 50.53 -51.6 c 12.57 14.65 23.09 30.6 37.19 42.2 c 11.96 9.85 18.02 21.54 23.94 35.78 Z" stroke-linecap="round"/>
</g>
		<g transform="matrix(1 0 0 1 -132.8686 -113.7149)" id="Layer_1">
<path style="stroke: none; stroke-width: 1; stroke-dasharray: none; stroke-linecap: butt; stroke-dashoffset: 0; stroke-linejoin: miter; stroke-miterlimit: 4; is-custom-font: none; font-file-url: none; fill: rgb(209,145,94); fill-rule: nonzero; opacity: 1;" transform=" translate(-827.1314, -426.2851)" d="M 851.9 375.06 c 0.32 7.01 0.62 13.41 0.94 20.54 c -19.76 4.54 -40.74 6.74 -51.75 27.5 c 14.63 -14.25 32.21 -20.61 53.09 -20.63 c 2.87 7.15 5.77 14.37 8.99 22.4 c -23.87 11.59 -46.89 23.9 -53.79 53.17 c -14.27 -13.97 -17.78 -30.85 -18.24 -48.4 c -1.11 -41.7 17.32 -58.4 60.75 -54.58 Z" stroke-linecap="round"/>
</g>
		<g transform="matrix(1 0 0 1 81.0187 -74.065)" id="Layer_1">
<path style="stroke: none; stroke-width: 1; stroke-dasharray: none; stroke-linecap: butt; stroke-dashoffset: 0; stroke-linejoin: miter; stroke-miterlimit: 4; is-custom-font: none; font-file-url: none; fill: rgb(209,145,94); fill-rule: nonzero; opacity: 1;" transform=" translate(-1041.0187, -465.935)" d="M 993.63 502.91 c 1.28 -11.07 5.3 -17.48 12.44 -24.31 c 11.99 -11.48 21.24 -25.86 31.4 -39.21 c 2.12 -2.78 3.21 -6.35 5.21 -10.43 c 17.51 7.2 32.83 16.31 43.59 32.07 c 3.53 5.18 2.45 8.47 -1.5 13.06 c -10.58 12.32 -24.48 17.22 -39.69 19.87 c -16.64 2.9 -33.27 5.79 -51.45 8.95 Z" stroke-linecap="round"/>
</g>
		<g transform="matrix(1 0 0 1 -69.65 124.2)" id="Layer_1">
<path style="stroke: none; stroke-width: 1; stroke-dasharray: none; stroke-linecap: butt; stroke-dashoffset: 0; stroke-linejoin: miter; stroke-miterlimit: 4; is-custom-font: none; font-file-url: none; fill: rgb(255,255,255); fill-rule: nonzero; opacity: 1;" transform=" translate(-890.35, -664.2)" d="M 881.53 625.41 c -1.53 9.14 -3.06 18.29 -4.65 27.77 c 17.99 -3.52 25.46 -27.08 47.64 -21.27 c -11.89 9.57 -23.78 19.14 -36.87 29.67 c 11.16 14.2 22.37 28.46 35.06 44.62 c -28.89 -1.19 -31.53 -28.22 -47.83 -41.58 c -2.24 10.94 -4.47 21.87 -6.92 33.82 c -3.72 -0.52 -7.03 -0.98 -11.78 -1.64 c 5.03 -24.19 9.67 -47.41 14.99 -70.46 c 0.45 -1.93 5.55 -2.78 8.49 -4.14 c 0.62 1.07 1.25 2.13 1.87 3.2 Z" stroke-linecap="round"/>
</g>
		<g transform="matrix(1 0 0 1 -8.079 128.6695)" id="Layer_1">
<path style="stroke: none; stroke-width: 1; stroke-dasharray: none; stroke-linecap: butt; stroke-dashoffset: 0; stroke-linejoin: miter; stroke-miterlimit: 4; is-custom-font: none; font-file-url: none; fill: rgb(255,255,255); fill-rule: nonzero; opacity: 1;" transform=" translate(-951.921, -668.6695)" d="M 925.26 697.3 c 4.82 -6.83 9.07 -6.63 15.6 -2.45 c 4.23 2.7 11.24 2.97 16.36 1.7 c 3.47 -0.86 7.48 -5.99 8.11 -9.74 c 0.45 -2.73 -3.73 -6.94 -6.76 -9.33 c -2.68 -2.11 -6.61 -2.68 -10.02 -3.82 c -10.26 -3.43 -18.53 -9.11 -18.98 -20.9 c -0.39 -10.19 4.3 -18.12 14.13 -22.21 c 10.87 -4.53 22.22 -2.13 30.93 6.77 c -1.9 2.31 -3.85 4.67 -5.79 7.02 c -1.56 -0.44 -2.56 -0.67 -3.53 -0.99 c -4 -1.35 -8.48 -4.55 -11.86 -3.64 c -4.49 1.21 -9.96 4.91 -11.47 8.88 c -1.03 2.71 3.13 8.92 6.54 11.4 c 4.17 3.04 10.02 3.71 15.07 5.61 c 8.83 3.31 14.68 9.2 14.98 19.11 c 0.29 9.68 -4.7 16.47 -12.91 20.89 c -12.68 6.81 -30.44 3.17 -40.37 -8.3 Z" stroke-linecap="round"/>
</g>
		<g transform="matrix(1 0 0 1 12.0512 -44.17)" id="Layer_1">
<path style="stroke: none; stroke-width: 1; stroke-dasharray: none; stroke-linecap: butt; stroke-dashoffset: 0; stroke-linejoin: miter; stroke-miterlimit: 4; is-custom-font: none; font-file-url: none; fill: rgb(248,248,248); fill-rule: nonzero; opacity: 1;" transform=" translate(-972.0512, -495.83)" d="M 959.74 527.67 c -1.9 -23.55 -3.58 -44.24 -5.15 -63.68 c 10.15 5.78 21.41 11.89 32.24 18.68 c 1.85 1.16 3.2 5.7 2.49 7.95 c -3.34 10.6 -6.28 21.68 -11.92 31.04 c -2.35 3.9 -11.07 3.96 -17.67 6 Z" stroke-linecap="round"/>
</g>
		<g transform="matrix(1 0 0 1 -21.367 -46.3278)" id="Layer_1">
<path style="stroke: none; stroke-width: 1; stroke-dasharray: none; stroke-linecap: butt; stroke-dashoffset: 0; stroke-linejoin: miter; stroke-miterlimit: 4; is-custom-font: none; font-file-url: none; fill: rgb(248,248,248); fill-rule: nonzero; opacity: 1;" transform=" translate(-938.6331, -493.6722)" d="M 947.86 462.96 c 2.02 20.76 3.92 40.25 5.87 60.28 c -9.41 2.98 -15.97 0.18 -19.88 -8.87 c -0.14 -0.33 -0.3 -0.65 -0.42 -0.99 c -3.62 -10.08 -11.62 -21.21 -9.56 -29.95 c 1.86 -7.86 14.76 -13.11 23.98 -20.46 Z" stroke-linecap="round"/>
</g>
		<g transform="matrix(1 0 0 1 102.0323 -306.9007)" id="Layer_1">
<path style="stroke: none; stroke-width: 1; stroke-dasharray: none; stroke-linecap: butt; stroke-dashoffset: 0; stroke-linejoin: miter; stroke-miterlimit: 4; is-custom-font: none; font-file-url: none; fill: rgb(221,179,146); fill-rule: nonzero; opacity: 1;" transform=" translate(-1062.0323, -233.0993)" d="M 1050.64 250.09 c 0.96 -9.06 1.45 -18.21 3.13 -27.14 c 0.61 -3.23 4.2 -8.44 6.2 -8.34 c 4.13 0.21 9.06 2.55 11.81 5.65 c 1.89 2.12 2.25 8.21 0.56 10.45 c -5.65 7.47 -12.54 13.99 -18.95 20.88 c -0.92 -0.5 -1.83 -1 -2.75 -1.5 Z" stroke-linecap="round"/>
</g>
		<g transform="matrix(1 0 0 1 -185.2318 90.815)" id="Layer_1">
<path style="stroke: none; stroke-width: 1; stroke-dasharray: none; stroke-linecap: butt; stroke-dashoffset: 0; stroke-linejoin: miter; stroke-miterlimit: 4; is-custom-font: none; font-file-url: none; fill: rgb(209,145,94); fill-rule: nonzero; opacity: 1;" transform=" translate(-774.7681, -630.815)" d="M 765.32 612.61 c 7.24 5.01 14.5 10.03 22.15 15.32 c -3.74 6.76 -7.66 13.86 -11.66 21.09 c -14.06 -14.73 -16.9 -24.99 -10.49 -36.41 Z" stroke-linecap="round"/>
</g>
		<g transform="matrix(1 0 0 1 -119.2983 -307.1178)" id="Layer_1">
<path style="stroke: none; stroke-width: 1; stroke-dasharray: none; stroke-linecap: butt; stroke-dashoffset: 0; stroke-linejoin: miter; stroke-miterlimit: 4; is-custom-font: none; font-file-url: none; fill: rgb(221,179,146); fill-rule: nonzero; opacity: 1;" transform=" translate(-840.7018, -232.8822)" d="M 847.35 248.18 c -5 -4.54 -10.76 -8.53 -14.68 -13.86 c -2.01 -2.74 -1.89 -8.34 -0.55 -11.8 c 0.96 -2.48 6.52 -5.63 8.32 -4.8 c 3.31 1.53 6.7 5.43 7.63 8.98 c 1.68 6.42 1.56 13.31 2.2 20.01 c -0.97 0.49 -1.94 0.98 -2.92 1.47 Z" stroke-linecap="round"/>
</g>
		<g transform="matrix(1 0 0 1 24.285 -222.6425)" id="Layer_1">
<path style="stroke: none; stroke-width: 1; stroke-dasharray: none; stroke-linecap: butt; stroke-dashoffset: 0; stroke-linejoin: miter; stroke-miterlimit: 4; is-custom-font: none; font-file-url: none; fill: rgb(248,248,248); fill-rule: nonzero; opacity: 1;" transform=" translate(-984.285, -317.3574)" d="M 963.55 313.77 c 15.76 -4.04 28.48 -2.54 41.47 3.81 c -8.81 8.62 -27.99 7.27 -41.47 -3.81 Z" stroke-linecap="round"/>
</g>
		<g transform="matrix(1 0 0 1 166.6328 68.18)" id="Layer_1">
<path style="stroke: none; stroke-width: 1; stroke-dasharray: none; stroke-linecap: butt; stroke-dashoffset: 0; stroke-linejoin: miter; stroke-miterlimit: 4; is-custom-font: none; font-file-url: none; fill: rgb(209,145,94); fill-rule: nonzero; opacity: 1;" transform=" translate(-1126.6329, -608.18)" d="M 1127.01 626.07 c -11.53 -24.76 -14.88 -18.54 8.19 -35.78 c -3.12 13.63 -5.65 24.7 -8.19 35.78 Z" stroke-linecap="round"/>
</g>
		<g transform="matrix(1 0 0 1 61.075 118.175)" id="Layer_1">
<path style="stroke: none; stroke-width: 1; stroke-dasharray: none; stroke-linecap: butt; stroke-dashoffset: 0; stroke-linejoin: miter; stroke-miterlimit: 4; is-custom-font: none; font-file-url: none; fill: rgb(0,0,0); fill-rule: nonzero; opacity: 1;" transform=" translate(-1021.075, -658.175)" d="M 1016.32 641.17 c 6.67 11.16 11.95 19.99 17.88 29.91 c -8.97 1.4 -16.67 2.6 -26.25 4.1 c 2.78 -11.3 5.28 -21.44 8.37 -34.01 Z" stroke-linecap="round"/>
</g>
		<g transform="matrix(1 0 0 1 -186.8511 -116.039)" id="Layer_1">
<path style="stroke: none; stroke-width: 1; stroke-dasharray: none; stroke-linecap: butt; stroke-dashoffset: 0; stroke-linejoin: miter; stroke-miterlimit: 4; is-custom-font: none; font-file-url: none; fill: rgb(131,92,47); fill-rule: nonzero; opacity: 1;" transform=" translate(-773.1489, -423.9609)" d="M 954.59 214.61 l -40.7 14.4 s -50.5 10.84 -58.28 18.63 c 0 0 3.01 -49.68 -28.48 -37.79 c 0 0 -14.75 15.19 0 31.05 l 13.56 13.21 s 4.75 1.98 0 7.27 c 0 0 -12.22 -6.15 -23.91 58.75 c 0 0 1.32 16.55 -18.5 36.37 c 0 0 -57.01 83.14 8.16 139.33 c 0 0 19.59 26.2 -4.85 36.9 s -39.63 16.14 -50.2 32.91 c 0 0 0.84 26.97 6.61 38.57 c 0 0 -25.1 30 11.23 53.97 c 0 0 -17.17 45.36 -17.17 50.85 c 0 0 -122.2 -203.91 -148.62 -319.5 s 0 -190.9 0 -190.9 c 0 0 29.03 -109.15 209.32 -32.37 c 0 0 55.83 28.4 141.84 48.35 Z" stroke-linecap="round"/>
</g>
		<g transform="matrix(1 0 0 1 -50.2756 -409.1256)" id="Layer_1">
<path style="stroke: none; stroke-width: 1; stroke-dasharray: none; stroke-linecap: butt; stroke-dashoffset: 0; stroke-linejoin: miter; stroke-miterlimit: 4; is-custom-font: none; font-file-url: none; fill: rgb(131,92,47); fill-rule: nonzero; opacity: 1;" transform=" translate(-909.7244, -130.8744)" d="M 1156.88 107.93 s -68.37 -63.41 -247.21 -60.44 c -178.84 2.97 -259.1 85.21 -259.1 85.21 c 0 0 9.9 -8.03 81.25 -11.89 c 73.32 -3.96 127.82 46.57 225.21 76.29 c 34.85 10.64 63.62 16.07 88.16 17.26 c 1.78 -8.03 5.07 -10.69 11.39 -12.43 c 5.21 -1.44 16.44 7.92 20.39 11.41 c 27.86 -3.41 49.77 -13.53 70.01 -28.12 c 42.61 -30.72 9.91 -77.28 9.91 -77.28 Z" stroke-linecap="round"/>
</g>
		<g transform="matrix(1 0 0 1 -10.7053 109.0274)" id="Layer_1">
<path style="stroke: none; stroke-width: 1; stroke-dasharray: none; stroke-linecap: butt; stroke-dashoffset: 0; stroke-linejoin: miter; stroke-miterlimit: 4; is-custom-font: none; font-file-url: none; fill: rgb(223,26,35); fill-rule: nonzero; opacity: 1;" transform=" translate(-949.2947, -649.0274)" d="M 1076.15 517.03 s 31.27 29.28 63.85 41.5 c 0 0 6.61 4.73 2.64 9.58 c 0 0 -27.3 32.15 -28.62 32.59 c 0 0 -15.41 -25.54 -22.02 -28.62 c 0 0 31.71 44.04 40.07 165.14 c 0 0 -103.93 93.36 -377.39 7.49 c 0 0 7.57 -92.11 58.28 -152.81 c 0 0 -21.84 20.91 -25.28 31.27 c 0 0 -33.66 -18.06 -25.4 -54.17 c 0 0 16.63 -21.14 32.48 -23.34 s 32.59 -21.91 32.59 -21.91 c 0 0 170.81 97.82 248.81 -6.71 Z" stroke-linecap="round"/>
</g>
		<g transform="matrix(1 0 0 1 60.6972 -249.0874)" id="Layer_1">
<path style="stroke: none; stroke-width: 1; stroke-dasharray: none; stroke-linecap: butt; stroke-dashoffset: 0; stroke-linejoin: miter; stroke-miterlimit: 4; is-custom-font: none; font-file-url: none; fill: rgb(6,5,13); fill-rule: nonzero; opacity: 1;" transform=" translate(-1020.6972, -290.9126)" d="M 1041.99 285.42 s -44.21 -12.3 -42.55 6.76 c 0 0 2.1 10.81 15.42 7.5 s 2.65 -13.67 27.14 -14.27 Z" stroke-linecap="round"/>
</g>
		<g transform="matrix(1 0 0 1 -85.7372 -249.7874)" id="Layer_1">
<path style="stroke: none; stroke-width: 1; stroke-dasharray: none; stroke-linecap: butt; stroke-dashoffset: 0; stroke-linejoin: miter; stroke-miterlimit: 4; is-custom-font: none; font-file-url: none; fill: rgb(6,5,13); fill-rule: nonzero; opacity: 1;" transform=" translate(-874.2628, -290.2126)" d="M 852.97 284.72 s 44.21 -12.3 42.55 6.76 c 0 0 -2.1 10.81 -15.42 7.5 s -2.65 -13.67 -27.14 -14.27 Z" stroke-linecap="round"/>
</g>
		<g transform="matrix(1 0 0 1 53.53 -251.54)" id="Layer_1">
<circle style="stroke: none; stroke-width: 1; stroke-dasharray: none; stroke-linecap: butt; stroke-dashoffset: 0; stroke-linejoin: miter; stroke-miterlimit: 4; is-custom-font: none; font-file-url: none; fill: rgb(233,243,244); fill-rule: nonzero; opacity: 1;" cx="0" cy="0" r="5.53"/>
</g>
		<g transform="matrix(1 0 0 1 -72.97 -251.54)" id="Layer_1">
<circle style="stroke: none; stroke-width: 1; stroke-dasharray: none; stroke-linecap: butt; stroke-dashoffset: 0; stroke-linejoin: miter; stroke-miterlimit: 4; is-custom-font: none; font-file-url: none; fill: rgb(233,243,244); fill-rule: nonzero; opacity: 1;" cx="0" cy="0" r="5.53"/>
</g>
		<g transform="matrix(0.1028 -0.9947 0.9947 0.1028 23.6678 -224.1268)" id="Layer_1">
<ellipse style="stroke: none; stroke-width: 1; stroke-dasharray: none; stroke-linecap: butt; stroke-dashoffset: 0; stroke-linejoin: miter; stroke-miterlimit: 4; is-custom-font: none; font-file-url: none; fill: rgb(233,243,244); fill-rule: nonzero; opacity: 1;" cx="0" cy="0" rx="7.29" ry="18.66"/>
</g>
		<g transform="matrix(1 0 0 1 6.74 257.3289)" id="Layer_1">
<path style="stroke: none; stroke-width: 1; stroke-dasharray: none; stroke-linecap: butt; stroke-dashoffset: 0; stroke-linejoin: miter; stroke-miterlimit: 4; is-custom-font: none; font-file-url: none; fill: rgb(221,179,146); fill-rule: nonzero; opacity: 1;" transform=" translate(-966.74, -797.3289)" d="M 1053.49 783.92 s -130.35 9.92 -173.5 -2.41 c 0 0 69.14 69.55 173.5 2.41 Z" stroke-linecap="round"/>
</g>
		<g transform="matrix(1 0 0 1 10.22 -5.6944)" id="Layer_1">
<path style="stroke: none; stroke-width: 1; stroke-dasharray: none; stroke-linecap: butt; stroke-dashoffset: 0; stroke-linejoin: miter; stroke-miterlimit: 4; is-custom-font: none; font-file-url: none; fill: rgb(221,179,146); fill-rule: nonzero; opacity: 1;" transform=" translate(-970.22, -534.3056)" d="M 1026.72 509.42 c -11.65 1.47 -23.29 2.99 -34.91 4.69 c -2.11 0.31 -4.73 3.4 -5.47 5.73 c -3.67 11.59 -11.97 14.82 -22.78 12.82 c -9.69 -1.79 -20.57 -2.44 -28.33 -7.55 c -5.22 -3.44 -9.22 -5.35 -14.98 -5.1 c -5.37 0.23 -10.74 0.46 -16.11 0.7 v 27.76 c 20.77 6.93 42.3 11.19 65.14 10.68 c 24.97 -0.55 47.37 -7.34 67.02 -20.46 l -9.59 -29.25 Z" stroke-linecap="round"/>
</g>
		<g transform="matrix(1 0 0 1 -110.815 127.0828)" id="Layer_1">
<path style="stroke: none; stroke-width: 1; stroke-dasharray: none; stroke-linecap: butt; stroke-dashoffset: 0; stroke-linejoin: miter; stroke-miterlimit: 4; is-custom-font: none; font-file-url: none; fill: rgb(248,248,248); fill-rule: nonzero; opacity: 1;" transform=" translate(-849.185, -667.0828)" d="M 849.3 700.62 c -7.4 -1.38 -13.49 -5.39 -18.28 -11.9 c -5.6 -7.65 -8.39 -16.6 -8.39 -26.71 c 0 -6.4 1.12 -12.06 3.37 -17 c 2.25 -4.94 5.45 -8.27 9.62 -10.04 c 4.17 -1.77 8.74 -2.18 13.72 -1.25 c 4.34 0.81 8.19 2.44 11.55 4.93 c 3.36 2.49 6.12 5.43 8.29 8.85 c 2.17 3.42 3.8 7.17 4.9 11.26 c 1.1 4.09 1.66 8.35 1.66 12.8 c 0 4.87 -0.59 9.05 -1.78 12.52 c -1.19 3.47 -2.63 6.32 -4.31 8.52 c -1.68 2.2 -3.39 3.88 -5.11 5.03 c -2.26 1.54 -4.81 2.54 -7.64 2.97 c -2.83 0.43 -5.36 0.44 -7.59 0.02 Z m -0.63 -5.94 c 5.52 1.03 10.25 -0.48 14.19 -4.48 c 3.94 -4 5.92 -10.48 5.91 -19.37 c 0 -9.41 -2.16 -17.07 -6.49 -23.09 c -3.39 -4.68 -7.81 -7.49 -13.24 -8.5 c -5.29 -0.99 -9.86 0.42 -13.7 4.28 c -3.84 3.86 -5.76 10.42 -5.76 19.74 c 0 9.17 1.89 16.49 5.67 21.87 c 3.79 5.39 8.25 8.59 13.4 9.55 Z" stroke-linecap="round"/>
</g>
		<g transform="matrix(1 0 0 1 -40.575 134.61)" id="Layer_1">
<path style="stroke: none; stroke-width: 1; stroke-dasharray: none; stroke-linecap: butt; stroke-dashoffset: 0; stroke-linejoin: miter; stroke-miterlimit: 4; is-custom-font: none; font-file-url: none; fill: rgb(248,248,248); fill-rule: nonzero; opacity: 1;" transform=" translate(-919.425, -674.61)" d="M 889.99 640.91 c 3.52 0.38 7.04 0.72 10.57 1.02 c 6.29 17.84 12.59 35.56 18.9 53.17 c 6.27 -16.97 12.54 -34.05 18.81 -51.25 c 3.53 0.05 7.06 0.07 10.59 0.06 c 0 21.47 0 42.93 0 64.4 c -2.07 0 -4.14 0 -6.2 0 v -58.58 c -7.14 19.48 -14.27 38.81 -21.41 57.99 c -1.24 -0.06 -2.47 -0.12 -3.71 -0.19 c -7.1 -19.91 -14.2 -39.97 -21.28 -60.17 c 0 19.53 0 39.05 0 58.58 c -2.09 -0.2 -4.18 -0.41 -6.26 -0.63 v -64.4 Z" stroke-linecap="round"/>
</g>
		<g transform="matrix(1 0 0 1 25.905 135.095)" id="Layer_1">
<path style="stroke: none; stroke-width: 1; stroke-dasharray: none; stroke-linecap: butt; stroke-dashoffset: 0; stroke-linejoin: miter; stroke-miterlimit: 4; is-custom-font: none; font-file-url: none; fill: rgb(248,248,248); fill-rule: nonzero; opacity: 1;" transform=" translate(-985.905, -675.095)" d="M 981.05 642.79 c 3.35 -0.22 6.7 -0.47 10.05 -0.75 c 6.91 20.88 13.82 41.63 20.71 62.24 c -2.1 0.26 -4.2 0.51 -6.3 0.74 c -2.15 -6.41 -4.3 -12.84 -6.45 -19.28 c -8.7 0.87 -17.42 1.52 -26.15 1.96 c -2.18 6.76 -4.36 13.51 -6.54 20.25 c -2.12 0.08 -4.25 0.15 -6.37 0.2 c 7.02 -21.65 14.04 -43.43 21.05 -65.36 Z m 5.02 3.9 c -3.7 11.59 -7.41 23.14 -11.11 34.66 c 7.37 -0.4 14.73 -0.95 22.09 -1.65 c -3.66 -10.96 -7.32 -21.96 -10.98 -33 Z" stroke-linecap="round"/>
</g>
		<g transform="matrix(1 0 0 1 86.48 126.035)" id="Layer_1">
<path style="stroke: none; stroke-width: 1; stroke-dasharray: none; stroke-linecap: butt; stroke-dashoffset: 0; stroke-linejoin: miter; stroke-miterlimit: 4; is-custom-font: none; font-file-url: none; fill: rgb(248,248,248); fill-rule: nonzero; opacity: 1;" transform=" translate(-1046.48, -666.035)" d="M 1022.74 638.4 c 3.25 -0.47 6.49 -0.97 9.73 -1.51 c 10.59 15.8 21.15 31.28 31.64 46.44 v -52.63 c 2.04 -0.46 4.08 -0.94 6.12 -1.43 v 64.4 c -2.04 0.49 -4.08 0.97 -6.12 1.43 c -11.65 -16.95 -23.38 -34.29 -35.15 -52.03 v 58.79 c -2.08 0.33 -4.15 0.64 -6.23 0.94 v -64.4 Z" stroke-linecap="round"/>
</g>
</g>
</g>
</svg>